<?xml version="1.0" encoding="utf-8"?>
<!-- Generator: Adobe Illustrator 23.0.3, SVG Export Plug-In . SVG Version: 6.00 Build 0)  -->
<svg version="1.1" id="Layer_1" xmlns="http://www.w3.org/2000/svg" xmlns:xlink="http://www.w3.org/1999/xlink" x="0px" y="0px"
	 viewBox="0 0 558.1 162.7" style="enable-background:new 0 0 558.1 162.7;" xml:space="preserve">
<style type="text/css">
	.st0{fill:#1A1A1A;}
	.st1{fill:#2E008B;}
</style>
<path class="st0" d="M210.6,62.3c0.4,1.4-0.1,2.2-1.2,2.6l-10.7,3.2c-1.3,0.4-2,0-2.4-1.3c-1.7-5.4-5.2-8.4-11.8-8.4
	c-10.1,0-13.5,5.9-13.5,13.9v18.4c0,8,3.4,13.9,13.5,13.9c8.3,0,12.7-3.9,12.7-12.3v-2.4h-11.1c-0.9,0-1.5-0.5-1.5-1.6V78.1
	c0-1,0.6-1.6,1.5-1.6h24.2c1,0,1.6,0.5,1.6,1.5v15.4c0,14.5-10.7,25.5-27.3,25.5c-19.7,0-28.9-11.7-28.9-27.7V71.8
	c0-16,9.2-27.7,28.9-27.7C200.5,44.1,207.7,53.2,210.6,62.3 M264.8,80.5v35.7c0,0.9-0.6,1.5-1.5,1.5h-10.9c-1,0-1.6-0.6-1.6-1.5
	v-5.8c-3.3,5.2-8.5,8.4-15,8.4c-10.3,0-16.9-6.6-16.9-16.8c0-9.9,6.2-15.8,21.5-16.9c3.3-0.3,6.6-0.3,9.9-0.1v-4
	c0-5.3-2.8-7.4-7.5-7.4c-4.8,0-6.2,2-7.5,5c-0.5,1.2-0.9,1.4-2,1.1l-10.9-2.8c-1.1-0.3-1.2-0.9-1-1.7c1.5-7.8,8.9-13.6,22-13.6
	C257.1,61.7,264.8,68.2,264.8,80.5 M250.2,99.2v-5.1c-3.1-0.1-5.9,0-8.7,0.3c-5.5,0.7-8.5,2.4-8.5,6.6c0,3.9,2.6,5.9,6.8,5.9
	C244.7,106.9,248.5,104.2,250.2,99.2 M304.1,61.7c6.9,0,11.5,4.1,13.6,9.9c4.1-5.9,9-9.9,15.9-9.9c9.6,0,15,7.6,15,19v35.5
	c0,0.9-0.8,1.5-1.8,1.5h-11.4c-1,0-1.8-0.6-1.8-1.5V83.3c0-4.9-2.2-7.9-6-7.9c-4.1,0-7,3.4-8.5,8.5v32.3c0,1-0.7,1.5-1.4,1.5h-12.3
	c-0.9,0-1.3-0.6-1.3-1.5V83.3c0-4.9-2.2-7.9-6-7.9c-4.2,0-7.1,3.6-8.5,8.6v32.2c0,0.9-0.5,1.5-1.5,1.5H276c-1,0-1.5-0.6-1.5-1.5
	V64.3c0-0.7,0.5-1.4,1.5-1.4h11.6c1,0,1.5,0.7,1.5,1.4v6.2C292.4,66,297.1,61.7,304.1,61.7 M410.8,62.9c0.3,1.3-0.1,2.3-1.3,2.6
	L399,68.6c-1.3,0.4-2-0.1-2.4-1.3c-1.5-4.9-4.1-8.9-11.4-8.9c-9,0-11.9,5.9-11.9,13.9v18.4c0,8,3.3,13.9,11.9,13.9
	c7.7,0,10.7-4.4,11.9-9.8c0.3-1.2,1.1-1.8,2.4-1.3l10.5,3.4c1.2,0.4,1.6,1.3,1.3,2.6c-2.5,10.7-10.2,19.4-26.2,19.4
	c-18,0-27.1-11.7-27.1-27.7V71.8c0-16,9.3-27.7,27.1-27.7C400.7,44.1,408.1,52.4,410.8,62.9 M463.5,80.5v35.7c0,0.9-0.6,1.5-1.5,1.5
	h-10.9c-1,0-1.6-0.6-1.6-1.5v-5.8c-3.3,5.2-8.5,8.4-15,8.4c-10.3,0-16.9-6.6-16.9-16.8c0-9.9,6.2-15.8,21.5-16.9
	c3.3-0.3,6.6-0.3,9.9-0.1v-4c0-5.3-2.8-7.4-7.5-7.4c-4.8,0-6.2,2-7.5,5c-0.5,1.2-0.9,1.4-2,1.1l-10.9-2.8c-1.1-0.3-1.2-0.9-1-1.7
	c1.5-7.8,8.9-13.6,22-13.6C455.8,61.7,463.5,68.2,463.5,80.5 M448.9,99.2v-5.1c-3.1-0.1-5.9,0-8.7,0.3c-5.5,0.7-8.5,2.4-8.5,6.6
	c0,3.9,2.6,5.9,6.8,5.9C443.4,106.9,447.2,104.2,448.9,99.2 M505.8,63.9v10.6c0,1.3-0.5,1.8-1.8,1.8h-1.6c-7.9,0-12.6,3.6-14.1,9.5
	v30.5c0,1-0.7,1.5-1.3,1.5h-12.5c-0.6,0-1.3-0.5-1.3-1.5V64.4c0-0.9,0.6-1.4,1.5-1.4H486c1.2,0,1.5,0.8,1.5,1.6v7.3
	c2.6-4.8,7.4-9.6,15.9-9.6C505.4,62.2,505.8,62.5,505.8,63.9 M525.3,94.8v2.1c0,5.7,3,9.8,10,9.8c6.8,0,8.7-2.6,10.5-5.8
	c0.9-1.5,1.3-1.7,2.9-1l7.8,4c1.6,0.8,1.7,1.6,1,3.1c-3.4,7.6-11.8,12-22.3,12c-15.8,0-24.1-9.4-24.1-22.3V84
	c0-12.5,7.8-22.3,24-22.3c15.4,0,23,9.8,23,22v8.7c0,1.5-0.5,2.5-2.6,2.5h-30.2L525.3,94.8z M525.3,83.3v1.9h19.1v-1.9
	c0-5.3-3-9.5-9.5-9.5C528.3,73.8,525.3,77.9,525.3,83.3"/>
<path class="st1" d="M130.6,99.5V63.4c0-34.4-27.9-62.3-62.3-62.3H2c-1.1,0-2,0.9-2,2v96.4c0,34.4,27.9,62.3,62.3,62.3h6
	C102.7,161.7,130.6,133.8,130.6,99.5 M110.6,100.5c0,23.4-17.2,41.2-44,41.2C34.9,141.7,20,122.9,20,97V65.7
	C20,39.9,34.8,21,66.6,21c25.7,0,37.3,14.7,41.9,29.3c0.6,2.2-0.2,3.5-1.9,4.1l-17.2,5.1c-2.1,0.6-3.2,0-3.8-2.1
	c-2.7-8.8-8.5-13.6-19-13.6c-16.3,0-21.7,9.6-21.7,22.5V96c0,12.9,5.4,22.5,21.7,22.5c13.4,0,20.4-6.2,20.4-19.8v-3.8H69.1
	c-1.4,0-2.4-0.8-2.4-2.6V75.9c0-1.6,1-2.6,2.4-2.6H108c1.6,0,2.6,0.8,2.6,2.4V100.5z"/>
</svg>
