<?xml version="1.0" encoding="UTF-8"?>
<svg id="Layer_1" xmlns="http://www.w3.org/2000/svg" version="1.1" viewBox="0 0 78.6 40">
  <!-- Generator: Adobe Illustrator 29.0.0, SVG Export Plug-In . SVG Version: 2.1.0 Build 186)  -->
  <defs>
    <style>
      .st0 {
        fill: #ef681c;
      }
    </style>
  </defs>
  <g>
    <path d="M.3,10.1C.3,3.7,3.1.4,7.6.4s5.4,1.5,6,4.9v.5c.1,0-2.5.6-2.5.6v-.5c-.6-2.3-1.9-3.1-3.6-3.1s-4.3,2.1-4.3,7.2,1.7,6.8,4.2,6.8,3.7-.9,3.7-4.1v-.5h-3.8v-2.2h6.4v8.9h-2.3l-.2-2.2c-.9,1.8-2.5,2.5-4.5,2.5-3.9,0-6.5-3.1-6.5-9Z"/>
    <path d="M23.6,17.6c-.8.9-1.9,1.5-3.6,1.5-2.4,0-4-1.6-4-3.7s1.9-3.4,3.5-3.8l4-1.1v-.5c0-1.4-.9-2.2-2.3-2.2s-2.4.8-2.8,1.8v.2c0,0-2.1-1.1-2.1-1.1v-.3c.7-1.2,2.3-2.8,5.2-2.8s4.8,1.5,4.8,4.1v6.8c0,.6,0,1.5.2,2.1v.2c0,0-2.6,0-2.6,0h0c0-.5-.1-.9-.2-1.2h0ZM20.8,17.1c1.2,0,2.2-.7,2.8-1.4v-3.3l-2.8.9c-1.1.3-2,.9-2,2s.7,1.9,1.9,1.9h0Z"/>
    <path d="M41.9,7.9c-1.1,0-2.2.7-2.8,1.3v9.5h-2.7v-8.9c0-1.3-.7-2-2-2s-2.2.7-2.8,1.3v9.5h-2.7V5.9h2.6v1.4c1-1,2.4-1.7,3.8-1.7s2.9.8,3.4,2c1-1.2,2.5-2,4-2,2.7,0,3.7,1.8,3.7,3.7v9.5h-2.7v-8.9c0-1.3-.7-2-2-2h0Z"/>
    <path d="M52,17.6l-.3,1.2h-2.3V.7h2.7v6.2c.8-.9,2-1.4,3.2-1.4,2.9,0,4.9,2.2,4.9,6.6s-2.1,6.9-5,6.9-2.5-.5-3.3-1.5h0ZM54.7,16.9c1.5,0,2.8-1.4,2.8-4.7s-1.3-4.5-2.9-4.5-1.9.5-2.5,1.2v6.7c.7.7,1.5,1.2,2.6,1.2Z"/>
    <path d="M62.5.7h2.7v18.1h-2.7V.7Z"/>
    <path d="M67.6,12.5c0-4.1,2-6.9,5.6-6.9s5.1,1.5,5.1,6.1v1.2h-8.1v.2c0,2.5,1.3,3.9,3.1,3.9s2.1-.5,2.7-1.6l.2-.3,2.1.9v.3c-1.1,1.9-2.8,2.9-5.1,2.9-3.3,0-5.6-2.3-5.6-6.6h0ZM75.8,11.2v-.2c0-2.3-1.2-3.2-2.6-3.2s-2.7,1-2.9,3.4h5.5,0Z"/>
  </g>
  <g>
    <path class="st0" d="M5.4,21.2h3.9l5.1,18.1h-2.9l-1.3-4.7h-6l-1.3,4.7H.3l5.1-18.1ZM9.6,32.3l-2.4-8.9-2.4,8.9h4.7Z"/>
    <path class="st0" d="M13.7,26.4h2.7l2.1,9.2,2.3-9.2h2.5l2.3,9.2,2.2-9.2h2.5l-3.3,12.9h-2.7l-2.3-9.2-2.3,9.2h-2.6l-3.3-12.9h0Z"/>
    <path class="st0" d="M38.3,38c-.8.9-1.9,1.5-3.6,1.5-2.4,0-4-1.6-4-3.7s1.9-3.4,3.5-3.8l4-1.1v-.5c0-1.4-.9-2.2-2.3-2.2s-2.4.8-2.8,1.8v.2c0,0-2.1-1.1-2.1-1.1v-.3c.7-1.2,2.3-2.8,5.2-2.8s4.8,1.5,4.8,4.1v6.8c0,.6,0,1.5.2,2.1v.2c0,0-2.6,0-2.6,0h0c0-.5-.1-.9-.2-1.2h0ZM35.4,37.5c1.2,0,2.2-.7,2.8-1.4v-3.3l-2.8.9c-1.1.3-2,.9-2,2s.7,1.9,1.9,1.9h0Z"/>
    <path class="st0" d="M43.5,26.4h2.5v2.4c1.7-2,3.2-2.6,4.5-2.6v2.5c-1.8,0-3.2,1-4.3,2v8.6h-2.7v-12.9h0Z"/>
    <path class="st0" d="M50.8,33c0-4.1,2-6.9,5.6-6.9s5.1,1.5,5.1,6.1v1.2h-8.1v.2c0,2.5,1.3,3.9,3.1,3.9s2.1-.5,2.7-1.6l.2-.3,2.1.9v.3c-1.1,1.9-2.8,2.9-5.1,2.9-3.3,0-5.6-2.3-5.6-6.6h0ZM59,31.6v-.2c0-2.3-1.2-3.2-2.6-3.2s-2.7,1-2.9,3.4h5.5Z"/>
  </g>
</svg>