<?xml version="1.0" encoding="utf-8"?>
<!-- Generator: Adobe Illustrator 23.0.3, SVG Export Plug-In . SVG Version: 6.00 Build 0)  -->
<svg version="1.1" id="Layer_3" xmlns="http://www.w3.org/2000/svg" xmlns:xlink="http://www.w3.org/1999/xlink" x="0px" y="0px"
	 viewBox="0 0 603.7 185.5" style="enable-background:new 0 0 603.7 185.5;" xml:space="preserve">
<style type="text/css">
	.st0{fill:#FF5F00;}
	.st1{fill:#FF8300;}
</style>
<g>
	<circle class="st0" cx="95.1" cy="92.7" r="40.9"/>
	<polygon class="st0" points="95.1,40.9 113.7,22.3 113.7,0 76.5,0 76.5,22.3 	"/>
	<polygon class="st1" points="69.2,47.9 76,22.4 64.8,3 32.6,21.7 43.8,41 	"/>
	<polygon class="st0" points="50.2,66.8 43.4,41.4 24,30.2 5.4,62.4 24.9,73.6 	"/>
	<polygon class="st1" points="43.3,92.7 24.7,74.1 2.3,74.1 2.3,111.3 24.7,111.3 	"/>
	<polygon class="st0" points="50.2,118.6 24.9,111.8 5.4,123 24,155.2 43.4,144 	"/>
	<polygon class="st1" points="69.1,137.6 43.8,144.4 32.6,163.8 64.8,182.3 76,162.9 	"/>
	<polygon class="st0" points="95.1,144.5 76.5,163.1 76.5,185.5 113.7,185.5 113.7,163.1 	"/>
	<polygon class="st1" points="121,137.6 114.2,162.9 125.4,182.3 157.6,163.8 146.4,144.4 	"/>
	<polygon class="st0" points="139.9,118.6 146.7,144 166.1,155.2 184.8,123 165.4,111.8 	"/>
	<polygon class="st1" points="146.9,92.7 165.5,111.3 187.8,111.3 187.8,74.1 165.5,74.1 	"/>
	<polygon class="st0" points="139.9,66.8 165.4,73.6 184.8,62.4 166.1,30.2 146.8,41.4 	"/>
	<polygon class="st1" points="121,47.9 146.4,41.1 157.6,21.7 125.4,3 114.2,22.4 	"/>
</g>
<g>
	<path d="M252.2,22.1c16.3,0,24.4,8,24.4,8l-7.9,14.5c0,0-5.7-5.7-15.1-5.7c-11.8,0-16.5,7.2-16.5,15.3c0,9.6,6.3,16.4,15.9,16.4
		c5.9,0,10.5-3.1,11-3.9v-2.8h-8V50.4h23.6v35.4h-15.1v-2.7c0-1,0.1-1.8,0.2-2h-0.4c-0.8,1.1-5.8,5.8-15.9,5.8
		c-17,0-31-12.7-31-32.3C217.7,36.2,231.3,22.1,252.2,22.1z"/>
	<path d="M357.3,24.4H384c13.5,0,22.7,7.3,22.7,20.2c0,7.1-3.6,13.7-9.4,17.2V62c0.2,0.3,1.4,1.9,2.7,4.2l10.8,19.7h-20.2L381,66.6
		h-5.2v19.3h-18.6V24.4H357.3z M381.4,52.3c4.2,0,6.5-2.5,6.5-6.5c0-3.9-1.6-6.4-7.2-6.4h-4.9v12.8L381.4,52.3L381.4,52.3z"/>
	<path d="M415.4,24.4h25c19,0,31.1,11.2,31.1,30.6s-12.1,30.9-31.1,30.9h-25V24.4z M439.2,70.7c8.3,0,13.2-5.3,13.2-15.7
		c0-10.3-5.2-15.5-13.2-15.5H434v31.2H439.2z"/>
	<path d="M548.9,24.4h17.7l15.2,25.2c2.5,4.2,4.4,9.4,4.4,9.4h0.3c0,0-0.7-5.5-0.7-9.4V24.4h17.9v61.5h-18l-15.3-26.4
		c-2.2-3.7-4.4-9.3-4.4-9.3h-0.3c0,0,0.7,5.4,0.7,9.3v26.4h-17.6L548.9,24.4L548.9,24.4z"/>
	<path d="M222.4,100h20.3l7.7,24.8c1.2,3.9,2.5,9.9,2.5,9.9h0.3c0,0,1.3-5.9,2.5-9.9l7.7-24.8h20.2l4.5,61.5h-17.3l-1.7-25.6
		c-0.3-4.6,0-9.9,0-9.9h-0.3c0,0-1.5,6-2.8,9.9l-5.6,17.5h-14.8l-5.7-17.5c-1.2-3.9-2.8-9.9-2.8-9.9h-0.3c0,0,0.2,5.2-0.1,9.9
		l-1.6,25.6h-17.5L222.4,100z"/>
	<path d="M325.7,98.5c20.2,0,33.7,13.8,33.7,32c0,18.7-13.5,32.8-33.7,32.8S292,149.2,292,130.5C292,112.3,305.5,98.5,325.7,98.5z
		 M325.7,146.6c8.2,0,14.2-6.5,14.2-16c0-9.1-5.9-15.3-14.2-15.3s-14.2,6.2-14.2,15.3C311.5,140.1,317.5,146.6,325.7,146.6z"/>
	<path d="M318.3,23.2c20.2,0,33.7,13.8,33.7,32c0,18.7-13.5,32.8-33.7,32.8s-33.7-14.1-33.7-32.8C284.7,37,298.1,23.2,318.3,23.2z
		 M318.3,71.3c8.2,0,14.2-6.5,14.2-16c0-9.1-5.9-15.3-14.2-15.3s-14.2,6.2-14.2,15.3C304.1,64.8,310.1,71.3,318.3,71.3z"/>
	<path d="M509.6,23.2c20.2,0,33.7,13.8,33.7,32c0,18.7-13.5,32.8-33.7,32.8s-33.7-14.1-33.7-32.8C475.9,37,489.4,23.2,509.6,23.2z
		 M509.6,71.3c8.2,0,14.2-6.5,14.2-16c0-9.1-5.9-15.3-14.2-15.3c-8.2,0-14.2,6.2-14.2,15.3C495.4,64.8,501.3,71.3,509.6,71.3z"/>
	<path d="M396.7,98.5c20.2,0,33.7,13.8,33.7,32c0,18.7-13.5,32.8-33.7,32.8S363,149.2,363,130.5C363,112.3,376.6,98.5,396.7,98.5z
		 M396.7,146.6c8.2,0,14.2-6.5,14.2-16c0-9.1-5.9-15.3-14.2-15.3s-14.2,6.2-14.2,15.3C382.5,140.1,388.5,146.6,396.7,146.6z"/>
	<path d="M436.6,100h25c19,0,31.1,11.2,31.1,30.6s-12.1,30.9-31.1,30.9h-25V100z M460.4,146.4c8.3,0,13.2-5.3,13.2-15.7
		c0-10.3-5.2-15.5-13.2-15.5h-5.2v31.2H460.4z"/>
	<path d="M509.1,137.2l-20.3-37.1h19.9l5.9,12.7c1.7,3.9,3.5,9.3,3.5,9.3h0.3c0,0,1.8-5.4,3.6-9.3l5.8-12.7h20l-20,37.1v24.3h-18.6
		L509.1,137.2L509.1,137.2z"/>
</g>
</svg>
