<svg enable-background="new 62.477 50.717 154.936 195.358" height="195.358" viewBox="62.477 50.717 154.936 195.358" width="154.936" xmlns="http://www.w3.org/2000/svg"><path d="m83.282 179.628c-.455.211-.406 4.407-.835 4.645-1.472.816-2.778 1.789-3.828 2.905-.177.188-.163.962-.104 1.858 5.345 6.95 11.84 12.962 19.205 17.761 9.184-1.594 13.366-10.423 9.128-19.619-3.122-6.773-15.471-11.303-23.566-7.55z" fill="#0777b7"/><path d="m217.413 141.863c0 42.784-34.684 77.468-77.468 77.468s-77.468-34.684-77.468-77.468 34.684-77.468 77.468-77.468c62.016 0 77.468 50.647 77.468 77.468z" fill="#42b8e8"/><path d="m136.321 208.918c20.69-6.656 46.946-21.951 62.471-42.357.099-13.079-.161-24.926-.831-34.037-.843-11.475-3.872-13.674-12.995-12.049-5.837 1.04-46.62 6.274-96.468 3.608-9.598-.513-11.688 2.435-11.688 6.635 0 6.651 5.593 25.014 11.011 48.575 14.935 16.182 42.125 28.55 48.5 29.625z" fill="#fde2d6"/><path d="m137.046 208.918c-6.35-1.071-31.738-15.72-48.309-25.583 1.418 6.358 2.799 13.054 4.041 19.964 13.065 10.045 29.413 16.031 47.167 16.031 23.211 0 44.022-10.221 58.22-26.393.286-7.426.483-14.777.578-21.83-15.591 12.431-41.346 31.264-61.697 37.811z" fill="#0777b7"/><path d="m109.851 133.561s1.72.944 4.05 2.095c3.786 3.28 8.204 4.689 11.336 4.577 4.253-.153 15.096-1.192 26.752-6.398 2.86-.936 5.731-2.011 8.313-3.236 2.363.103-2.535 4.955-4.171 8.812-1.636 3.858-7.282 21.555-8.186 26.013-.905 4.458-6.037 10.342-15.188 9.564-9.15-.777-13.8-7.039-15.516-17.623-1.716-10.585-5.927-22.604-7.39-23.804z" fill="#171716"/><path d="m116.501 149.338c2.823 4.764 9.441 7.135 14.701 5.944 5.259-1.192 16.583-9.031 19.218-12.987 1.64-2.466 1.734-6.084 1.569-8.46-10.975 3.575-22.851 5.113-27.089 5.266-3.123.112-7.723-1.829-10.999-3.445.11 3.654.616 10.334 2.6 13.682z" fill="#fff"/><path d="m129.826 174.504c.924.227 1.894.395 2.932.484 9.151.778 14.282-5.106 15.188-9.564.241-1.193.825-3.338 1.578-5.909-5.126.603-17.637 3.28-19.698 14.989z" fill="#e62f25"/><path d="m137.046 215.265c22.482-6.112 46.676-22.356 61.485-33.524.136-5.181.224-10.268.261-15.18-15.127 14.262-41.781 31.772-62.471 38.428-6.375-1.075-31.933-15.833-48.499-25.697.841 3.656 1.676 7.441 2.487 11.323 16.561 9.828 40.584 23.612 46.737 24.65z" fill="#cac9d2"/><path d="m87.156 131.723 1.312-.073.601 4.862.046-.002c.223-.404.45-.778.666-1.122l2.639-3.958 1.63-.091-3.152 4.484 4.684 5.583-1.554.087-3.96-4.766-.828 1.161.475 3.845-1.312.073zm6.01 13.619s-5.658 6.341-5.321 9.074c.207 1.681 1.749 2.967 3.445 2.872 1.34-.075 2.371-.991 2.643-2.202.092-.027.169.018.19.29.121 3.65-1.493 3.819-1.493 3.819l.074.601 2.231-.124 2.23-.124-.074-.601s-1.633.012-2.409-3.602c-.044-.271.02-.325.118-.307.565 1.164 1.806 1.954 3.146 1.88 1.695-.094 2.946-1.54 2.693-3.214-.563-3.733-7.473-8.362-7.473-8.362z" fill="#171716"/><path d="m93.083 96.224c-2.312 2.844-2.486 4.375-.438 6.181 1.39 1.226 2.809 2.815 2.982 3.618 1.542 7.152 1.257 13.568 2.982 18.837 1.446 4.418 4.528 6.159 7.847 6.937 14.103 3.305 21.862-7.933 31.659-11.493 8.345-3.032 14.084-2.883 15.793-2.39 4.554 16.431 23.321 11.59 27.984.543 3.305-7.829 5.779-19.996 1.085-34.464-9.584-29.541-32.275-36.697-58.328-31.913-33.428 6.137-29.746 41.905-31.566 44.144z" fill="#3d74b9"/><path d="m159.198 63.534c1.369.235 13.276 6.767 15.852 15.909 1.036 3.513.248 5.753-1.661 6.616-1.538.696-3.218-.247-4.22-2.205-.124.008-.187.136-.057.631 1.903 6.367 3.799 5.622 3.799 5.622l.234 1.046-2.558 1.23-2.633 1.266-.26-1.069s1.901-1.056.745-7.804c-.105-.508-.212-.564-.318-.472.011 2.412-.996 4.59-2.646 5.336-2.13.964-4.412-.84-5.413-4.019-2.938-9.331 2.307-18.564-.864-22.087z" fill="#cac9d2"/><path d="m170.843 99.929c-3.244 5.19.843 15.631 4.606 11.157 3.763-4.475-1.362-16.347-4.606-11.157zm-74.736.795c-.659.33 2.024 3.201 2.329 5.559 1.158 8.95.606 22.996 11.472 24.368 13.582 1.715 19.75-9.074 28.786-11.777 4.252-1.272 9.926-2.375 14.599-2.267-2.025-7.628-4.497-17.922-8.168-20.382-5.575-3.738-45.856 2.918-49.018 4.499z" fill="#91919f"/><path d="m113.115 124.5c0 1.096 4.926 3.204 9.455 2.77 1.408-.135 4.07-6.122 3.227-6.181-2.747-.194-8.257-.671-11.03-.73-.706-.017-1.652 3.397-1.652 4.141zm37.938-3.879c-.461 2.23-3.643 4.812-7.034 6.089-2.585.973-6.117 1.031-8.535.141-1.327-.489-.755-5.848 0-6.229 1.677-.847 9.119-3.289 11.892-3.349.707-.016 3.886 2.339 3.677 3.348z" fill="#171716"/><path d="m124.254 104.568c.147-3.154.868-6.151 2.097-8.828-5.582.538-11.552 1.349-16.713 2.178-1.171 2.423-1.911 5.248-2.053 8.293-.439 9.408 4.953 17.298 12.044 17.629 3.468.162 6.693-1.528 9.138-4.39-.317-.388-.625-.792-.917-1.221-2.556-3.74-3.833-8.591-3.596-13.661z" fill="#f1f1f1"/><ellipse cx="120.92" cy="115.37" fill="#171716" rx="5.269" ry="4.194" transform="matrix(.1517 -.9884 .9884 .1517 -11.4585 217.3884)"/><circle cx="118.183" cy="112.669" fill="#f1f1f1" r="1.935"/><path d="m145.125 96.224c-2.082-1.395-9.002-1.341-17.021-.644-1.341 2.617-2.196 5.708-2.353 9.058-.458 9.813 5.167 18.044 12.563 18.388 6.091.284 11.476-4.882 13.441-12.195-1.737-6.321-3.835-12.734-6.63-14.607z" fill="#f1f1f1"/><ellipse cx="139.616" cy="113.906" fill="#171716" rx="5.496" ry="4.374" transform="matrix(.1517 -.9884 .9884 .1517 5.848 234.6254)"/><circle cx="136.758" cy="111.085" fill="#f1f1f1" r="2.018"/><g fill="#aeadb6"><path d="m157.192 93.977c-2.445-4.728-8.635-7.227-17.901-7.228h-.007c-7.794 0-40.932 2.055-48.639 7.886-.66.499-.791 1.44-.291 2.101.498.659 1.439.791 2.101.291 6.626-5.013 38.151-7.278 46.828-7.278h.009c5.628.001 12.841.974 15.238 5.607 2.56 4.95 6.038 17.242 5.175 21.917-.561 3.036-4.084 6.875-9.425 10.27-10.046 6.383-28.035 12.2-45.661 7.588-3.772-.988-5.951-2.522-6.476-4.562-.372-1.444.083-3.103.863-4.675-.141-.329-.275-.669-.394-1.033-.304-.929-.532-1.906-.732-2.904-1.773 2.542-3.49 6.048-2.642 9.353.815 3.176 3.716 5.437 8.622 6.721 4.667 1.221 9.353 1.75 13.926 1.75 13.615-.001 26.202-4.687 34.104-9.707 6.212-3.947 10.035-8.3 10.766-12.256 1.101-5.976-2.968-19.015-5.464-23.841z"/><path d="m154.325 100.252c.582 2.326 2.119 7.399 2.543 8.818.424 1.418 6.808-.749 6.467-2.075s-2.05-7.836-2.764-9.42c-.578-1.282-6.828.351-6.246 2.677z"/><path d="m154.782 98.862 5.165 9.354s4.5-1.635 4.517-3.095c.013-1.149-1.546-7.684-2.153-9.631-.424-1.361-7.529 3.372-7.529 3.372zm-30.209-7.035c-2.377.312-7.656.868-9.136.869-2.834.002-1.801-6.608-.442-6.777s8.041-.968 9.777-.885c1.405.067 2.178 6.481-.199 6.793z"/></g><path d="m126.85 178.48c-3.915.721-17.763 26.639-11.219 44.233 6.885 18.511 32.66 25.409 41.134 22.846 8.474-2.562 14.383-25.987 9.731-39.806-6.267-18.616-29.637-29.117-39.646-27.273z" fill="#ce4227"/><path d="m167.275 217.997c.095-.403-.156-.806-.559-.9-.402-.095-.806.156-.9.559-.148.633-.374 1.205-.641 1.73-.19-1.429-.456-2.815-.775-4.16.886-1.036 1.706-2.387 2.103-4.085.095-.403-.156-.806-.559-.9-.402-.097-.806.156-.9.559-.23.987-.641 1.84-1.123 2.567-.359-1.266-.768-2.484-1.209-3.657.826-1.011 1.577-2.298 1.95-3.898.095-.403-.156-.806-.559-.9-.401-.094-.806.156-.9.559-.233 1-.652 1.862-1.143 2.595-.542-1.296-1.119-2.525-1.716-3.684.702-.947 1.318-2.109 1.645-3.509.095-.403-.156-.806-.559-.9-.404-.093-.807.156-.9.559-.208.891-.565 1.669-.987 2.347-.662-1.191-1.334-2.298-1.991-3.306.643-.911 1.201-2.005 1.505-3.31.095-.403-.156-.806-.559-.9-.402-.099-.806.156-.9.559-.203.87-.549 1.632-.958 2.299-.748-1.077-1.458-2.021-2.089-2.813.65-.915 1.216-2.019 1.523-3.336.095-.403-.156-.806-.559-.9-.401-.095-.806.156-.9.559-.22.942-.604 1.762-1.059 2.467-.952-1.118-1.57-1.735-1.598-1.763-.296-.29-.771-.284-1.06.012-.289.295-.284.77.012 1.06.029.029.695.693 1.709 1.901-1.265 1.384-2.611 2.062-2.634 2.073-.371.181-.527.628-.347 1.001.121.25.363.402.621.421.127.009.258-.014.38-.073.102-.05 1.537-.764 2.939-2.239.645.819 1.365 1.787 2.123 2.899-1.284 1.448-2.69 2.159-2.733 2.18-.372.181-.527.629-.347 1.002.121.25.363.402.621.421.127.009.257-.014.38-.073.102-.05 1.533-.762 2.933-2.232.664 1.037 1.339 2.171 2 3.397-1.272 1.4-2.632 2.085-2.655 2.096-.371.181-.527.629-.347 1.001.121.25.363.402.621.421.127.009.258-.014.38-.073.097-.047 1.402-.698 2.737-2.031.595 1.19 1.168 2.453 1.698 3.784-1.188 1.218-2.376 1.818-2.415 1.837-.372.18-.527.628-.347 1.001.121.25.363.402.621.421.127.009.258-.014.38-.073.088-.043 1.154-.572 2.34-1.65.443 1.238.843 2.53 1.187 3.868-1.161 1.166-2.3 1.742-2.339 1.761-.372.18-.527.628-.347 1.001.121.25.363.402.621.421.127.009.258-.014.38-.073.081-.039 1.005-.501 2.083-1.426.33 1.544.58 3.144.727 4.796-1.282 1.428-2.67 2.126-2.693 2.137-.371.181-.527.629-.347 1.001.121.25.363.402.621.421.127.009.258-.014.38-.073.083-.04 1.048-.523 2.158-1.491.017.451.031.903.031 1.361 0 .396.306.719.694.747.018.001.037.002.056.002.414 0 .75-.336.749-.75-.001-.963-.045-1.908-.113-2.841.79-.993 1.5-2.243 1.859-3.784z" fill="#cac9d2"/><path d="m198.709 176.598c-3.65 5.904-5.141 7.356-8.008 14.553 4.728 11.762 3.955 20.782 5.276 21.661 2.73 1.817 3.247 4.631 3.247 4.631s-1.575-.837-4.165-2.791-34.689-2.455-39.275-1.916c-3.751.441-7.274 10.76-.199 12.169 9.03 1.797 42.667 3.868 47.555 4.062 2.92.116 5.728 1.207 7.576-2.14 1.748-3.166.154-31.608-12.007-50.229z" fill="#161615"/><path d="m137.666 194.189c-4.692 3.009-2.077 10.811 4.665 12.149.075.027.046.465.036 1.146-3.367.752-10.339 1.433-18.164-2.962-5.072-2.849-9.866-5.711-12.574-.183s5.428 7.006 7.783 7.49c2.354.484 10.581 2.717 10.581 2.717l-.575 1.6s-9.806 1.256-16.019-1.208c-2.583-1.024-6.78 4.473-.72 7.619 8.813 4.576 17.964 1.664 17.964 1.664l.849 1.561s-5.723 1.869-11.063 2.165c-1.43.079-2.265 1.287-2.468 2.173-.809 3.531 3.481 4.801 6.495 4.766 5.484-.063 13.35-3.564 13.35-3.564s8.585 2.247 12.137-3.553c0 0 3.216 1.753 5.8 1.597 2.583-.155 4.729-6.666 4.828-10.964s-2.034-10.938-5.537-8.223c-.253-4.137-5.027-7.721-8.308-8.04-2.439-.237-3.928-2.133-3.904-3.208.028-1.075-.464-7.751-5.156-4.742z" fill="#f1f1f1"/><path d="m182.004 185.693c-3.674 14.328 10.179 24.663 27.248 11.837 5.61-4.216 4.986-8.487 1.489-11.813-.442-.42-.441-4.712-.968-5.1-1.234-.909-2.693-1.631-4.288-2.169-.465-.157-1.171-4.294-1.656-4.419-8.639-2.236-19.972 4.44-21.825 11.664z" fill="#0777b7"/></svg>